<svg width="286" height="50" viewBox="0 0 286 50" fill="none" xmlns="http://www.w3.org/2000/svg">
<path d="M10.2365 12.0786C11.1908 11.6168 12.235 11.3284 13.3107 11.2297L40.719 8.71522C41.451 8.64807 42.1896 8.66948 42.9154 8.77889L64.9527 12.101C65.7655 12.2235 66.5939 12.2356 67.4107 12.1368L93.4987 8.982C95.4624 8.74453 97.4549 9.15187 99.1176 10.1307L103.035 12.4372C104.661 13.3941 106.603 13.8055 108.526 13.6005L140.582 10.1833C141.322 10.1045 142.069 10.1163 142.805 10.2182L175.395 14.7336L211.946 15.6703C212.343 15.6805 212.74 15.6648 213.135 15.6233L244.907 12.2858H258.234C258.911 12.2858 259.587 12.3611 260.244 12.51L271.395 15.0349C273.254 15.4557 274.895 16.4467 276.043 17.8405L284.141 27.675C284.575 28.2027 284.11 28.9476 283.389 28.8795L276.432 28.2225C276.255 28.2058 276.077 28.2412 275.923 28.3237L271.509 30.6951C271.351 30.7799 271.229 30.9098 271.161 31.0646L266.516 41.6C266.324 42.0343 265.749 42.2078 265.31 41.9637L244.493 30.3937C241.369 28.6579 237.365 28.9821 234.628 31.1923L233.344 32.2298C233.198 32.3478 233.011 32.4153 232.815 32.4204L220.679 32.7369C219.711 32.7622 218.755 32.941 217.854 33.2653L209.116 36.4119C208.219 36.7349 207.39 37.1974 206.668 37.7786L199.419 43.6091L194.985 46.5629C194.094 47.1564 193.082 47.5827 192.008 47.8169L184.416 49.4719C184.195 49.5201 183.962 49.4841 183.772 49.3722L180.511 47.4621L167.144 37.5035C167.013 37.4058 166.852 37.3469 166.683 37.3346L164.423 37.1701C162.063 36.9983 159.735 37.7486 158.021 39.2327L156.496 40.5535C156.348 40.6821 156.152 40.7563 155.947 40.7618L148.758 40.9555C145.2 41.0514 142.104 43.1944 141.057 46.2858L140.006 49.388C139.817 49.9432 139.039 50.106 138.603 49.6814L127.242 38.6246C124.839 36.2865 121.077 35.5762 117.848 36.8513L109.272 40.2383C109.03 40.3341 108.752 40.3194 108.523 40.1987L103.657 37.6307C101.479 36.481 98.8441 36.2906 96.493 37.1131L92.4548 38.5257C89.0337 39.7224 85.2197 37.9942 84.2129 34.7909C83.3229 31.9591 80.1954 30.2177 77.0148 30.7832L72.1845 31.6418L63.4361 32.7864C63.2667 32.8085 63.109 32.8777 62.9844 32.9843L48.9174 45.0244C48.8264 45.1023 48.677 45.0646 48.6432 44.9552L43.7422 29.0713C42.701 25.6969 38.7456 23.818 35.1024 24.967C33.4232 25.4966 31.5811 25.3975 29.9823 24.6916L28.1003 23.8606C27.4634 23.5794 26.7895 23.3732 26.0951 23.2472L14.907 21.2159L1.26486 17.9034C0.535454 17.7263 0.422223 16.8287 1.0886 16.5062L10.2365 12.0786Z" fill="#98C4E7"/>
<path d="M10.2365 12.0786C11.1907 11.6168 12.2349 11.3284 13.3106 11.2297L40.719 8.71522C41.451 8.64807 42.1895 8.66948 42.9153 8.77889L64.9526 12.101C65.7655 12.2235 66.5939 12.2356 67.4107 12.1368L93.4986 8.982C95.4624 8.74453 97.4549 9.15187 99.1175 10.1307L103.035 12.4372C104.661 13.3941 106.603 13.8055 108.526 13.6005L140.582 10.1833C141.322 10.1045 142.069 10.1163 142.805 10.2182L175.395 14.7336L211.901 15.6691C212.328 15.6801 212.755 15.6611 213.179 15.6124L242.126 12.2858H256.56C257.168 12.2858 257.774 12.3464 258.368 12.4666L271.32 15.0886C273.225 15.4743 274.92 16.4564 276.108 17.8633L285.826 29.3663C286.278 29.9021 285.789 30.6672 285.053 30.5752L278.717 29.7833H273.865C271.249 29.7833 268.784 30.9026 267.214 32.8046L262.677 38.2979C262.351 38.6924 261.704 38.7022 261.364 38.3178L256.766 33.1201C256.35 32.65 255.874 32.2269 255.347 31.8597L249.23 27.593C247.266 26.2238 244.734 25.7203 242.321 26.2193L234.515 27.8336C232.275 28.2967 230.346 29.5809 229.185 31.3817L217.419 49.6264C217.114 50.0997 216.373 50.1291 216.024 49.6819L206.694 37.7432C206.527 37.5292 206.25 37.4094 205.961 37.4267L193.116 38.1991C192.947 38.2093 192.786 38.2662 192.653 38.3621L191.604 39.1211C188.564 41.3214 184.253 41.3151 181.221 39.1059L174.15 33.9544C173.953 33.8107 173.695 33.7563 173.448 33.8066L167.797 34.9583C167.082 35.1039 166.35 35.1631 165.618 35.1344L155.423 34.7349C155.25 34.7281 155.085 34.6627 154.962 34.5514C153.466 33.1992 151.375 32.5368 149.278 32.7505L147.785 32.9026C147.463 32.9354 147.149 32.7952 146.981 32.5434L141.223 23.913C140.868 23.3806 139.997 23.4451 139.741 24.0227L135.145 34.3999C134.961 34.8158 134.421 34.9954 133.985 34.7859L126.356 31.1222C124.559 30.2596 122.478 30.0244 120.503 30.461L109.618 32.8686C109.367 32.924 109.102 32.8707 108.901 32.7242L102.864 28.3324C100.418 26.5529 97.0793 26.1738 94.2267 27.3516L90.6386 28.833C90.4308 28.9188 90.1934 28.9232 89.9819 28.8452L78.7389 24.6992C77.1515 24.1139 75.4039 23.9883 73.735 24.3396L68.5624 25.4284C67.081 25.7403 65.5277 25.3315 64.4589 24.3486C62.9497 22.9607 60.5558 22.7717 58.8059 23.9024L55.5894 25.9808C53.9104 27.0657 51.6297 26.9542 50.0885 25.7118L49.5799 25.3018C48.4658 24.4038 46.846 24.2503 45.5521 24.9203C44.3646 25.535 42.891 25.4606 41.7859 24.7299L40.273 23.7296C39.1834 23.0092 37.8707 22.6211 36.5232 22.6211H13.5046C12.3035 22.6211 11.1167 22.3847 10.0258 21.9282L0.74794 18.0454C0.123256 17.784 0.0978532 16.9857 0.704869 16.6919L10.2365 12.0786Z" fill="#D1E6F7"/>
<path d="M6.85771 13.7139C9.98728 12.1992 14.2476 11.1437 18.9875 10.7089L35.3972 9.20341C39.3284 8.84275 43.421 8.92454 47.2388 9.43694C47.7446 9.50482 48.2553 9.54043 48.7665 9.53118L66.1087 9.21732C66.6199 9.20807 67.1232 9.2477 67.6332 9.2812C72.9867 9.63295 88.0467 7.28507 92.4262 6.75546L127.571 0.137232C132.176 -0.419589 143.633 0.794256 146.367 2.40374C149.025 3.9686 176.661 7.23704 181.179 6.75546C177.053 6.18388 185.394 6.3061 181.179 6.75546L215.1 7.43541L236.552 12.0138C233.389 12.5557 239.976 12.1015 236.552 12.0138C233.592 12.0138 239.281 11.5463 236.552 12.0138L250.69 10.7089C257.017 10.7089 264.335 11.1626 268.555 13.0838L271.272 14.3214C273.25 15.2217 274.766 16.2741 275.731 17.4167L284.106 27.33C284.863 28.2266 282.162 28.9355 280.473 28.2834L268.325 23.594C263.117 21.5835 255.427 21.071 248.92 22.3006C245.044 23.0329 240.645 23.1624 236.552 22.665L209.769 19.4103C204.005 18.7099 197.792 18.9905 192.545 20.1882L161.13 27.3585C160.004 27.6155 158.579 27.4292 158.03 26.9532L154.068 23.5181C149.011 19.1348 136.394 17.1455 125.417 19.0009L101.936 22.9696C96.5536 23.8793 90.5105 23.8919 85.1056 23.0048L66.8771 20.0127C63.0049 19.377 58.7719 19.1984 54.6623 19.4971L23.2928 21.7771C16.0308 22.305 8.59915 21.3311 3.45252 19.1773L0.630862 17.9964C-0.167016 17.6625 -0.21369 17.1364 0.522932 16.7799L6.85771 13.7139Z" fill="white"/>
</svg>
